<?xml version="1.0" encoding="UTF-8" standalone="no"?>
<svg width="26px" height="30px" viewBox="0 0 26 30" version="1.1" xmlns="http://www.w3.org/2000/svg" xmlns:xlink="http://www.w3.org/1999/xlink" xmlns:sketch="http://www.bohemiancoding.com/sketch/ns">
    <!-- Generator: Sketch 3.3.3 (12072) - http://www.bohemiancoding.com/sketch -->
    <title></title>
    <desc>Created with Sketch.</desc>
    <defs></defs>
    <g id="Page-1" stroke="none" stroke-width="1" fill="none" fill-rule="evenodd" sketch:type="MSPage">
        <g id="Main-Story" sketch:type="MSArtboardGroup" transform="translate(-246.000000, -4142.000000)" fill="#FFFFFF">
            <g id="Get-Paste" sketch:type="MSLayerGroup" transform="translate(0.000000, 3737.000000)">
                <g id="Rectangle-35-Copy-+--+-Download-on-the-Mac-" transform="translate(234.000000, 397.000000)" sketch:type="MSShapeGroup">
                    <g id="-+-Download-on-the-Mac-" transform="translate(11.000000, 7.000000)">
                        <path d="M13.8571429,9.03121248 C13.4729873,9.03121248 12.6446642,8.85114226 11.3721489,8.4909964 C10.1236432,8.13085054 9.05522653,7.95078031 8.16686675,7.95078031 C6.10203049,7.95078031 4.38536098,8.81511741 3.01680672,10.5438175 C1.67226218,12.2965274 1,14.5414029 1,17.2785114 C1,20.2557172 1.88834646,23.280897 3.66506603,26.3541417 C5.44178559,29.451396 7.24248788,31 9.06722689,31 C9.64346026,31 10.4357693,30.7959204 11.4441777,30.3877551 C12.3805569,30.0035995 13.244894,29.8115246 14.0372149,29.8115246 C14.8055261,29.8115246 15.7058772,29.9915948 16.7382953,30.3517407 C17.7947232,30.7358963 18.6470556,30.9279712 19.2953181,30.9279712 C20.8559502,30.9279712 22.4045541,29.763517 23.9411765,27.4345738 C24.4453807,26.6662627 24.8775492,25.9039654 25.2376951,25.1476591 C25.5978409,24.3913528 25.897958,23.6530648 26.1380552,22.9327731 C25.0576176,22.596637 24.1092478,21.840342 23.2929172,20.6638655 C22.4525768,19.4633794 22.032413,18.118855 22.032413,16.6302521 C22.032413,15.2616978 22.4285675,14.0252156 23.2208884,12.9207683 C23.6530634,12.2965155 24.3373303,11.5762346 25.2737095,10.759904 C24.9615831,10.3757484 24.6494613,10.0396173 24.3373349,9.7515006 C24.0252085,9.46338391 23.7130868,9.19928091 23.4009604,8.95918367 C22.2725034,8.19087251 20.9880024,7.80672269 19.547419,7.80672269 C18.6830689,7.80672269 17.6386616,8.01080228 16.4141657,8.41896759 C15.1896697,8.82713289 14.3373373,9.03121248 13.8571429,9.03121248 L13.8571429,9.03121248 Z M19.3673469,1.75630252 C19.3673469,1.66026363 19.3613446,1.55222149 19.3493397,1.43217287 C19.3373349,1.31212425 19.3073232,1.16806807 19.2593037,1 C17.146448,1.48019448 15.6398604,2.37454328 14.7394958,3.68307323 C13.8391312,4.99160318 13.3769509,6.5342048 13.3529412,8.31092437 C14.1212523,8.2388952 14.7334911,8.14285774 15.1896759,8.02280912 C15.8139287,7.80672161 16.4741862,7.37455306 17.1704682,6.72629052 C17.9147696,5.95797935 18.466985,5.1296563 18.8271309,4.24129652 C19.1872767,3.35293673 19.3673469,2.52461369 19.3673469,1.75630252 L19.3673469,1.75630252 Z" id=""></path>
                    </g>
                </g>
            </g>
        </g>
    </g>
</svg>