<?xml version="1.0" encoding="UTF-8" standalone="no"?>
<svg width="25px" height="30px" viewBox="0 0 25 30" version="1.1" xmlns="http://www.w3.org/2000/svg" xmlns:xlink="http://www.w3.org/1999/xlink" xmlns:sketch="http://www.bohemiancoding.com/sketch/ns">
    <!-- Generator: Sketch 3.3.3 (12072) - http://www.bohemiancoding.com/sketch -->
    <title>bell</title>
    <desc>Created with Sketch.</desc>
    <defs></defs>
    <g id="Page-1" stroke="none" stroke-width="1" fill="none" fill-rule="evenodd" sketch:type="MSPage">
        <g id="Main-Story" sketch:type="MSArtboardGroup" transform="translate(-594.000000, -4145.000000)" fill="#4A90E2">
            <g id="Get-Paste" sketch:type="MSLayerGroup" transform="translate(0.000000, 3737.000000)">
                <g id="Rectangle-35-+-Notify-me-When-it’s--+-Group" transform="translate(580.000000, 398.000000)" sketch:type="MSShapeGroup">
                    <g id="bell" transform="translate(14.000000, 10.000000)">
                        <path d="M12.7070707,29.7070707 C14.5959596,29.7070707 16.1414141,28.5050505 16.6565657,26.7878788 L8.58585859,26.7878788 C9.1010101,28.5050505 10.8181818,29.7070707 12.7070707,29.7070707 L12.7070707,29.7070707 Z" id="Shape"></path>
                        <path d="M23.6969697,23.010101 C22.4949495,22.8383838 20.7777778,22.1515152 20.7777778,19.4040404 L20.7777778,11.1616162 C20.7777778,7.21212121 18.030303,3.94949495 14.2525253,3.09090909 L14.2525253,1.88888889 C14.2525253,1.03030303 13.5656566,0.686868687 12.5353535,0.686868687 C11.6767677,0.686868687 10.8181818,1.03030303 10.8181818,1.88888889 L10.8181818,3.09090909 C7.04040404,3.77777778 4.29292929,7.21212121 4.29292929,11.1616162 L4.29292929,19.4040404 C4.29292929,22.1515152 2.57575758,22.8383838 1.37373737,23.010101 C0.858585859,23.010101 0.515151515,23.5252525 0.515151515,24.040404 C0.515151515,24.5555556 1.03030303,25.0707071 1.54545455,25.0707071 L12.5353535,25.0707071 L23.5252525,25.0707071 C24.040404,25.0707071 24.5555556,24.5555556 24.5555556,24.040404 C24.5555556,23.5252525 24.2121212,23.1818182 23.6969697,23.010101 L23.6969697,23.010101 Z" id="Shape"></path>
                    </g>
                </g>
            </g>
        </g>
    </g>
</svg>