<?xml version="1.0" encoding="UTF-8"?>
<svg width="30px" height="30px" viewBox="0 0 30 30" version="1.1" xmlns="http://www.w3.org/2000/svg" xmlns:xlink="http://www.w3.org/1999/xlink">
    <!-- Generator: Sketch 39 (31667) - http://www.bohemiancoding.com/sketch -->
    <title>Fill 3</title>
    <desc>Created with Sketch.</desc>
    <defs></defs>
    <g id="Page-1" stroke="none" stroke-width="1" fill="none" fill-rule="evenodd">
        <path d="M14.4986648,0.774866809 C6.49271003,0.774866809 0,7.43097653 0,15.6422777 C0,22.210771 4.15430185,27.7826275 9.91620369,29.7485209 C10.641671,29.8854216 10.9060438,29.426348 10.9060438,29.0320742 C10.9060438,28.6797831 10.8935818,27.7442954 10.8864606,26.5039754 C6.85321833,27.4020437 6.00224071,24.5107019 6.00224071,24.5107019 C5.34264403,22.7930551 4.39197029,22.3358069 4.39197029,22.3358069 C3.07544737,21.4140092 4.49166641,21.4322626 4.49166641,21.4322626 C5.94705178,21.5372198 6.71257559,22.9646372 6.71257559,22.9646372 C8.00595476,25.2362754 10.1066945,24.5800649 10.9327481,24.1994811 C11.0644894,23.2393512 11.43924,22.5840534 11.8531569,22.2125963 C8.63350625,21.8374885 5.24828877,20.5615745 5.24828877,14.864682 C5.24828877,13.2419529 5.81353019,11.9140166 6.74106019,10.875397 C6.59151601,10.4993765 6.09392553,8.98708062 6.88348323,6.9408722 C6.88348323,6.9408722 8.10031002,6.54112229 10.870438,8.4650328 C12.026735,8.13464589 13.2675957,7.97036511 14.5004451,7.96397641 C15.7324043,7.97036511 16.9723748,8.13464589 18.1304521,8.4650328 C20.8987998,6.54112229 22.1138463,6.9408722 22.1138463,6.9408722 C22.9051843,8.98708062 22.4075938,10.4993765 22.2589398,10.875397 C23.1882501,11.9140166 23.7490408,13.2419529 23.7490408,14.864682 C23.7490408,20.5761772 20.3584825,21.8329252 17.1290402,22.2007316 C17.6488843,22.6598051 18.1126493,23.5670001 18.1126493,24.9542601 C18.1126493,26.9411449 18.0948464,28.5447078 18.0948464,29.0320742 C18.0948464,29.4299987 18.3565487,29.8927229 19.0918076,29.7476082 C24.8492587,27.7771515 29,22.2089456 29,15.6422777 C29,7.43097653 22.50729,0.774866809 14.4986648,0.774866809" id="Fill-3" fill="#FFFFFF"></path>
    </g>
</svg>