<?xml version="1.0" encoding="UTF-8" standalone="no"?>
<svg width="50px" height="54px" viewBox="0 0 50 54" version="1.1" xmlns="http://www.w3.org/2000/svg" xmlns:xlink="http://www.w3.org/1999/xlink" xmlns:sketch="http://www.bohemiancoding.com/sketch/ns">
    <!-- Generator: Sketch 3.3.3 (12072) - http://www.bohemiancoding.com/sketch -->
    <title>share</title>
    <desc>Created with Sketch.</desc>
    <defs></defs>
    <g id="Page-1" stroke="none" stroke-width="1" fill="none" fill-rule="evenodd" sketch:type="MSPage">
        <g id="Main-Story" sketch:type="MSArtboardGroup" transform="translate(-52.000000, -2731.000000)" stroke="#979797">
            <g id="Integration" sketch:type="MSLayerGroup" transform="translate(0.000000, 2079.000000)">
                <g id="Cell-3" transform="translate(52.000000, 652.000000)" sketch:type="MSShapeGroup">
                    <g id="share" transform="translate(1.000000, 0.000000)">
                        <path d="M0,20.9901786 C0,18.7864638 1.7932991,17 4.00501033,17 L17.3358332,17 L30,17 L44.0051419,17 C46.2114411,17 48,18.7852456 48,20.9901786 L48,49.0098214 C48,51.2135362 46.2059475,53 43.9901068,53 L4.00989318,53 C1.79529033,53 0,51.2147544 0,49.0098214 L0,20.9901786 Z" id="Rectangle-199"></path>
                        <g id="Line-+-Line-+-Line" transform="translate(14.500000, 0.000000)" stroke-linecap="round" stroke-linejoin="round">
                            <path d="M9.5,0.5 L9.5,29.5" id="Line"></path>
                            <path d="M0.5,10.5 L9.5,0.5" id="Line"></path>
                            <path d="M9.5,0.5 L18.5,10.5" id="Line"></path>
                        </g>
                    </g>
                </g>
            </g>
        </g>
    </g>
</svg>